<svg height="472pt" viewBox="-52 0 472 472" width="472pt" xmlns="http://www.w3.org/2000/svg"><g fill="#46f8ff"><path d="m32 80c4.417969 0 8-3.582031 8-8v-56h56c4.417969 0 8-3.582031 8-8s-3.582031-8-8-8h-64c-4.417969 0-8 3.582031-8 8v64c0 4.417969 3.582031 8 8 8zm0 0"/><path d="m264 16h56v56c0 4.417969 3.582031 8 8 8s8-3.582031 8-8v-64c0-4.417969-3.582031-8-8-8h-64c-4.417969 0-8 3.582031-8 8s3.582031 8 8 8zm0 0"/><path d="m32 256h64c4.417969 0 8-3.582031 8-8s-3.582031-8-8-8h-56v-56c0-4.417969-3.582031-8-8-8s-8 3.582031-8 8v64c0 4.417969 3.582031 8 8 8zm0 0"/><path d="m328 176c-4.417969 0-8 3.582031-8 8v56h-56c-4.417969 0-8 3.582031-8 8s3.582031 8 8 8h64c4.417969 0 8-3.582031 8-8v-64c0-4.417969-3.582031-8-8-8zm0 0"/></g><path d="m104 128c0 44.183594 35.816406 80 80 80v-160c-44.183594 0-80 35.816406-80 80zm0 0" fill="#2b3990"/><path d="m264 128c0-44.183594-35.816406-80-80-80v160c44.183594 0 80-35.816406 80-80zm0 0" fill="#434f9c"/><path d="m144 280c-79.527344 0-144 64.472656-144 144v32c0 8.835938 7.164062 16 16 16h168v-192zm0 0" fill="#2b3990"/><path d="m224 280h-40v192h168c8.835938 0 16-7.164062 16-16v-32c0-79.527344-64.472656-144-144-144zm0 0" fill="#434f9c"/></svg>